<svg version="1.0" preserveAspectRatio="xMidYMid meet" viewBox="102.00000000000001 127.49999694000002 170.25 90.749997822" zoomAndPan="magnify" xmlns:xlink="http://www.w3.org/1999/xlink" xmlns="http://www.w3.org/2000/svg" style="max-height: 500px" width="170.25" height="90.749997822"><defs><g/><clipPath id="35c18ef4c9"><path clip-rule="nonzero" d="M 104.738281 129.457031 L 270.554688 129.457031 L 270.554688 216.085938 L 104.738281 216.085938 Z M 104.738281 129.457031"/></clipPath><clipPath id="b9a508038a"><path clip-rule="nonzero" d="M 187.5 129.457031 C 141.792969 129.457031 104.738281 148.847656 104.738281 172.769531 C 104.738281 196.691406 141.792969 216.085938 187.5 216.085938 C 233.207031 216.085938 270.261719 196.691406 270.261719 172.769531 C 270.261719 148.847656 233.207031 129.457031 187.5 129.457031 Z M 187.5 129.457031"/></clipPath><clipPath id="a6bdb31f5a"><path clip-rule="nonzero" d="M 0.738281 0.457031 L 166.480469 0.457031 L 166.480469 87.085938 L 0.738281 87.085938 Z M 0.738281 0.457031"/></clipPath><clipPath id="0350fc7be0"><path clip-rule="nonzero" d="M 83.5 0.457031 C 37.792969 0.457031 0.738281 19.847656 0.738281 43.769531 C 0.738281 67.691406 37.792969 87.085938 83.5 87.085938 C 129.207031 87.085938 166.261719 67.691406 166.261719 43.769531 C 166.261719 19.847656 129.207031 0.457031 83.5 0.457031 Z M 83.5 0.457031"/></clipPath><clipPath id="1a162ff64b"><rect height="88" y="0" width="167" x="0"/></clipPath><clipPath id="477b517ac8"><path clip-rule="nonzero" d="M 135.46875 142.441406 L 154 142.441406 L 154 160.441406 L 135.46875 160.441406 Z M 135.46875 142.441406"/></clipPath><clipPath id="e035038f43"><path clip-rule="nonzero" d="M 150 151 L 159.46875 151 L 159.46875 160.441406 L 150 160.441406 Z M 150 151"/></clipPath><clipPath id="bfebb26c46"><path clip-rule="nonzero" d="M 6.910156 0.714844 L 21.554688 0.714844 L 21.554688 15.359375 L 6.910156 15.359375 Z M 6.910156 0.714844"/></clipPath><clipPath id="3e0a3e85e5"><path clip-rule="nonzero" d="M 0.4375 9.382812 L 9.808594 9.382812 L 9.808594 18.753906 L 0.4375 18.753906 Z M 0.4375 9.382812"/></clipPath><clipPath id="fed43220c7"><rect height="19" y="0" width="22" x="0"/></clipPath></defs><g clip-path="url(#35c18ef4c9)"><g clip-path="url(#b9a508038a)"><g transform="matrix(1, 0, 0, 1, 104, 129)"><g clip-path="url(#1a162ff64b)"><g clip-path="url(#a6bdb31f5a)"><g clip-path="url(#0350fc7be0)"><path fill-rule="nonzero" fill-opacity="1" d="M 0.738281 0.457031 L 166.214844 0.457031 L 166.214844 87.085938 L 0.738281 87.085938 Z M 0.738281 0.457031" fill="#bcbf6b"/></g></g></g></g></g></g><g fill-opacity="1" fill="#bf0449"><g transform="translate(150.898868, 193.335734)"><g><path d="M 12.671875 -23.40625 C 13.890625 -23.613281 15.222656 -24.507812 16.671875 -26.09375 C 18.117188 -27.675781 19.453125 -29.507812 20.671875 -31.59375 C 21.835938 -33.457031 22.8125 -35.34375 23.59375 -37.25 C 24.375 -39.15625 24.859375 -40.8125 25.046875 -42.21875 C 25.242188 -43.625 24.976562 -44.5 24.25 -44.84375 C 23.8125 -45.101562 23.234375 -44.8125 22.515625 -43.96875 C 21.804688 -43.125 20.992188 -41.910156 20.078125 -40.328125 C 19.171875 -38.742188 18.242188 -36.9375 17.296875 -34.90625 C 16.472656 -33.082031 15.660156 -31.1875 14.859375 -29.21875 C 14.054688 -27.25 13.328125 -25.3125 12.671875 -23.40625 Z M 5.390625 -0.1875 C 3.785156 -0.664062 2.703125 -1.648438 2.140625 -3.140625 C 1.578125 -4.640625 1.40625 -6.453125 1.625 -8.578125 C 1.84375 -10.316406 2.164062 -12.179688 2.59375 -14.171875 C 3.207031 -16.679688 4.039062 -19.460938 5.09375 -22.515625 C 6.15625 -25.578125 7.398438 -28.632812 8.828125 -31.6875 C 10.265625 -34.738281 11.804688 -37.53125 13.453125 -40.0625 C 15.097656 -42.601562 16.785156 -44.640625 18.515625 -46.171875 C 20.253906 -47.710938 21.988281 -48.484375 23.71875 -48.484375 C 24.238281 -48.484375 24.828125 -48.378906 25.484375 -48.171875 C 26.785156 -47.691406 27.660156 -46.820312 28.109375 -45.5625 C 28.566406 -44.3125 28.675781 -42.828125 28.4375 -41.109375 C 28.195312 -39.398438 27.675781 -37.582031 26.875 -35.65625 C 26.070312 -33.726562 25.085938 -31.851562 23.921875 -30.03125 C 22.316406 -27.5625 20.453125 -25.363281 18.328125 -23.4375 C 16.203125 -21.507812 14.035156 -20.285156 11.828125 -19.765625 C 11.441406 -18.890625 11.03125 -17.832031 10.59375 -16.59375 C 10.15625 -15.363281 9.816406 -14.128906 9.578125 -12.890625 C 9.347656 -11.660156 9.335938 -10.613281 9.546875 -9.75 C 9.765625 -8.882812 10.332031 -8.382812 11.25 -8.25 L 11.640625 -8.25 C 12.890625 -8.25 14.304688 -8.769531 15.890625 -9.8125 C 17.472656 -10.851562 18.804688 -12.328125 19.890625 -14.234375 L 21.25 -12.28125 C 20.082031 -10.15625 18.78125 -8.140625 17.34375 -6.234375 C 15.914062 -4.328125 14.378906 -2.789062 12.734375 -1.625 C 11.085938 -0.457031 9.359375 0.125 7.546875 0.125 C 6.890625 0.125 6.171875 0.0195312 5.390625 -0.1875 Z M 5.390625 -0.1875"/></g></g></g><g fill-opacity="1" fill="#bf0449"><g transform="translate(168.771734, 193.335734)"><g><path d="M 5.328125 -0.125 C 3.640625 -0.0820312 2.347656 -0.523438 1.453125 -1.453125 C 0.566406 -2.390625 0.03125 -3.640625 -0.15625 -5.203125 C -0.351562 -6.765625 -0.257812 -8.5 0.125 -10.40625 C 0.519531 -12.3125 1.128906 -14.21875 1.953125 -16.125 C 2.859375 -18.195312 3.984375 -20.097656 5.328125 -21.828125 C 6.671875 -23.566406 8.132812 -24.957031 9.71875 -26 C 11.300781 -27.039062 12.9375 -27.5625 14.625 -27.5625 C 15.53125 -27.5625 16.375 -27.410156 17.15625 -27.109375 C 18.28125 -26.710938 18.992188 -25.992188 19.296875 -24.953125 C 19.609375 -23.921875 19.585938 -22.773438 19.234375 -21.515625 C 18.890625 -20.253906 18.296875 -19.113281 17.453125 -18.09375 C 16.609375 -17.082031 15.578125 -16.40625 14.359375 -16.0625 L 11.703125 -20.40625 C 12.046875 -20.28125 12.367188 -20.21875 12.671875 -20.21875 C 13.535156 -20.21875 14.359375 -20.539062 15.140625 -21.1875 C 16.398438 -22.3125 16.910156 -23.296875 16.671875 -24.140625 C 16.429688 -24.992188 15.8125 -25.421875 14.8125 -25.421875 C 13.988281 -25.421875 13.144531 -25.113281 12.28125 -24.5 C 11.195312 -23.851562 10.234375 -22.890625 9.390625 -21.609375 C 8.546875 -20.328125 7.863281 -18.925781 7.34375 -17.40625 C 6.820312 -15.894531 6.53125 -14.457031 6.46875 -13.09375 C 6.40625 -11.726562 6.617188 -10.601562 7.109375 -9.71875 C 7.609375 -8.832031 8.46875 -8.390625 9.6875 -8.390625 C 10.988281 -8.390625 12.4375 -8.8125 14.03125 -9.65625 C 15.632812 -10.5 17.175781 -11.960938 18.65625 -14.046875 L 19.890625 -12.9375 C 19.972656 -12.894531 20.035156 -12.835938 20.078125 -12.765625 C 20.128906 -12.703125 20.195312 -12.648438 20.28125 -12.609375 C 19.019531 -10.484375 17.578125 -8.476562 15.953125 -6.59375 C 14.328125 -4.707031 12.613281 -3.164062 10.8125 -1.96875 C 9.019531 -0.78125 7.191406 -0.164062 5.328125 -0.125 Z M 5.328125 -0.125"/></g></g></g><g fill-opacity="1" fill="#bf0449"><g transform="translate(183.784836, 193.335734)"><g><path d="M -3.96875 0.0625 C -3.226562 -1.582031 -2.359375 -3.390625 -1.359375 -5.359375 C -0.367188 -7.328125 0.664062 -9.34375 1.75 -11.40625 C 2.832031 -13.46875 3.816406 -15.460938 4.703125 -17.390625 C 5.597656 -19.316406 6.304688 -21.039062 6.828125 -22.5625 C 7.210938 -23.769531 7.445312 -24.816406 7.53125 -25.703125 C 7.625 -26.597656 7.5625 -27.21875 7.34375 -27.5625 L 13.90625 -27.5625 C 13.6875 -27.125 13.316406 -26.023438 12.796875 -24.265625 C 12.285156 -22.515625 11.59375 -20.6875 10.71875 -18.78125 C 12.28125 -21.726562 14.003906 -23.90625 15.890625 -25.3125 C 17.773438 -26.726562 19.429688 -27.4375 20.859375 -27.4375 C 22.335938 -27.4375 23.320312 -26.695312 23.8125 -25.21875 C 24.3125 -23.75 23.894531 -21.582031 22.5625 -18.71875 C 23.988281 -21.664062 25.796875 -23.863281 27.984375 -25.3125 C 30.171875 -26.769531 32.128906 -27.5 33.859375 -27.5 C 35.160156 -27.5 36.203125 -27.128906 36.984375 -26.390625 C 37.765625 -25.648438 38.144531 -24.539062 38.125 -23.0625 C 38.101562 -21.59375 37.484375 -19.753906 36.265625 -17.546875 C 34.578125 -14.597656 33.625 -12.300781 33.40625 -10.65625 C 33.1875 -9.007812 33.515625 -8.1875 34.390625 -8.1875 C 34.992188 -8.1875 35.800781 -8.578125 36.8125 -9.359375 C 37.832031 -10.140625 39.015625 -11.351562 40.359375 -13 L 42.3125 -11.953125 C 41.1875 -9.878906 40.003906 -7.929688 38.765625 -6.109375 C 37.535156 -4.285156 36.226562 -2.8125 34.84375 -1.6875 C 33.457031 -0.5625 31.914062 0 30.21875 0 C 29.09375 0 28.179688 -0.398438 27.484375 -1.203125 C 26.796875 -2.003906 26.375 -3.078125 26.21875 -4.421875 C 26.070312 -5.765625 26.191406 -7.21875 26.578125 -8.78125 C 26.835938 -9.988281 27.300781 -11.328125 27.96875 -12.796875 C 28.644531 -14.273438 29.273438 -15.695312 29.859375 -17.0625 C 30.453125 -18.425781 30.789062 -19.5625 30.875 -20.46875 C 30.957031 -21.382812 30.546875 -21.863281 29.640625 -21.90625 C 28.472656 -21.90625 27.347656 -21.375 26.265625 -20.3125 C 25.179688 -19.25 24.179688 -17.847656 23.265625 -16.109375 C 22.359375 -14.378906 21.554688 -12.53125 20.859375 -10.5625 C 20.171875 -8.59375 19.640625 -6.675781 19.265625 -4.8125 C 18.898438 -2.945312 18.71875 -1.34375 18.71875 0 L 11.375 0 C 12.113281 -1.601562 12.90625 -3.390625 13.75 -5.359375 C 14.59375 -7.328125 15.414062 -9.285156 16.21875 -11.234375 C 17.019531 -13.191406 17.671875 -15.003906 18.171875 -16.671875 C 18.671875 -18.335938 18.921875 -19.671875 18.921875 -20.671875 C 18.921875 -21.671875 18.550781 -22.171875 17.8125 -22.171875 C 17.113281 -22.171875 16.285156 -21.734375 15.328125 -20.859375 C 14.378906 -19.992188 13.394531 -18.859375 12.375 -17.453125 C 11.363281 -16.046875 10.359375 -14.503906 9.359375 -12.828125 C 8.359375 -11.160156 7.457031 -9.484375 6.65625 -7.796875 C 5.851562 -6.109375 5.179688 -4.570312 4.640625 -3.1875 C 4.097656 -1.800781 3.785156 -0.71875 3.703125 0.0625 Z M -3.96875 0.0625"/></g></g></g><g clip-path="url(#477b517ac8)"><path fill-rule="nonzero" fill-opacity="1" d="M 144.785156 147.320312 C 144.839844 147.832031 144.980469 148.320312 145.203125 148.785156 C 145.425781 149.25 145.71875 149.664062 146.082031 150.027344 C 146.445312 150.390625 146.859375 150.6875 147.324219 150.910156 C 147.789062 151.132812 148.277344 151.269531 148.789062 151.328125 C 150.410156 151.488281 152.03125 151.5625 153.65625 151.546875 C 152.03125 151.535156 150.410156 151.609375 148.789062 151.769531 C 148.277344 151.824219 147.789062 151.964844 147.324219 152.1875 C 146.859375 152.410156 146.445312 152.703125 146.082031 153.070312 C 145.71875 153.433594 145.425781 153.847656 145.203125 154.3125 C 144.980469 154.777344 144.839844 155.265625 144.785156 155.777344 C 144.625 157.394531 144.550781 159.015625 144.5625 160.640625 C 144.574219 159.015625 144.5 157.394531 144.339844 155.777344 C 144.285156 155.265625 144.144531 154.777344 143.921875 154.3125 C 143.699219 153.847656 143.40625 153.433594 143.042969 153.066406 C 142.679688 152.703125 142.265625 152.410156 141.800781 152.1875 C 141.335938 151.964844 140.847656 151.824219 140.335938 151.769531 C 138.71875 151.609375 137.09375 151.535156 135.46875 151.546875 C 137.09375 151.5625 138.71875 151.488281 140.335938 151.328125 C 140.847656 151.269531 141.335938 151.132812 141.800781 150.910156 C 142.265625 150.6875 142.679688 150.390625 143.042969 150.027344 C 143.40625 149.664062 143.699219 149.25 143.921875 148.785156 C 144.144531 148.320312 144.285156 147.832031 144.339844 147.320312 C 144.5 145.703125 144.574219 144.082031 144.5625 142.453125 C 144.550781 144.082031 144.625 145.703125 144.785156 147.320312 Z M 144.785156 147.320312" fill="#0d0d0d"/></g><g clip-path="url(#e035038f43)"><path fill-rule="nonzero" fill-opacity="1" d="M 154.9375 154.011719 C 154.964844 154.269531 155.035156 154.515625 155.148438 154.75 C 155.261719 154.988281 155.410156 155.195312 155.59375 155.382812 C 155.777344 155.566406 155.988281 155.714844 156.222656 155.828125 C 156.457031 155.9375 156.707031 156.007812 156.964844 156.039062 C 157.78125 156.121094 158.605469 156.15625 159.425781 156.148438 C 158.605469 156.144531 157.78125 156.179688 156.964844 156.261719 C 156.707031 156.289062 156.457031 156.359375 156.222656 156.472656 C 155.988281 156.585938 155.777344 156.734375 155.59375 156.917969 C 155.410156 157.105469 155.261719 157.3125 155.148438 157.546875 C 155.035156 157.785156 154.964844 158.03125 154.9375 158.289062 C 154.855469 159.109375 154.816406 159.929688 154.824219 160.753906 C 154.832031 159.929688 154.792969 159.109375 154.710938 158.289062 C 154.683594 158.03125 154.613281 157.785156 154.5 157.546875 C 154.386719 157.3125 154.238281 157.105469 154.054688 156.917969 C 153.871094 156.734375 153.660156 156.585938 153.425781 156.472656 C 153.191406 156.359375 152.945312 156.289062 152.683594 156.261719 C 151.867188 156.179688 151.046875 156.144531 150.222656 156.148438 C 151.046875 156.15625 151.867188 156.121094 152.683594 156.039062 C 152.945312 156.007812 153.191406 155.9375 153.425781 155.828125 C 153.660156 155.714844 153.871094 155.566406 154.054688 155.382812 C 154.238281 155.195312 154.386719 154.988281 154.5 154.75 C 154.613281 154.515625 154.683594 154.269531 154.710938 154.011719 C 154.792969 153.191406 154.832031 152.371094 154.824219 151.546875 C 154.820312 152.371094 154.855469 153.191406 154.9375 154.011719 Z M 154.9375 154.011719" fill="#0d0d0d"/></g><path fill-rule="nonzero" fill-opacity="1" d="M 151.476562 144.929688 C 151.511719 145.253906 151.648438 145.535156 151.878906 145.765625 C 152.109375 145.996094 152.390625 146.132812 152.714844 146.167969 C 153.214844 146.21875 153.714844 146.238281 154.21875 146.234375 C 153.714844 146.230469 153.214844 146.253906 152.714844 146.304688 C 152.390625 146.339844 152.109375 146.472656 151.878906 146.707031 C 151.648438 146.9375 151.511719 147.214844 151.476562 147.542969 C 151.429688 148.042969 151.40625 148.542969 151.410156 149.046875 C 151.414062 148.542969 151.390625 148.042969 151.339844 147.542969 C 151.304688 147.214844 151.171875 146.9375 150.941406 146.707031 C 150.707031 146.472656 150.429688 146.339844 150.101562 146.304688 C 149.601562 146.253906 149.101562 146.230469 148.597656 146.234375 C 149.101562 146.238281 149.601562 146.21875 150.101562 146.167969 C 150.429688 146.132812 150.707031 145.996094 150.941406 145.765625 C 151.171875 145.535156 151.304688 145.253906 151.339844 144.929688 C 151.390625 144.429688 151.414062 143.929688 151.410156 143.425781 C 151.40625 143.929688 151.429688 144.429688 151.476562 144.929688 Z M 151.476562 144.929688" fill="#0d0d0d"/><g transform="matrix(1, 0, 0, 1, 220, 182)"><g clip-path="url(#fed43220c7)"><g clip-path="url(#bfebb26c46)"><path fill-rule="nonzero" fill-opacity="1" d="M 14.433594 4.644531 C 14.480469 5.058594 14.59375 5.453125 14.773438 5.828125 C 14.953125 6.203125 15.191406 6.539062 15.484375 6.832031 C 15.777344 7.128906 16.113281 7.363281 16.488281 7.542969 C 16.863281 7.722656 17.257812 7.835938 17.671875 7.882812 C 18.664062 7.992188 19.945312 8.0625 21.601562 8.0625 C 19.945312 8.0625 18.664062 8.132812 17.671875 8.242188 C 17.257812 8.285156 16.863281 8.398438 16.488281 8.578125 C 16.113281 8.757812 15.777344 8.996094 15.484375 9.289062 C 15.191406 9.582031 14.953125 9.917969 14.773438 10.292969 C 14.59375 10.667969 14.480469 11.0625 14.433594 11.476562 C 14.328125 12.46875 14.257812 13.75 14.257812 15.40625 C 14.257812 13.75 14.1875 12.46875 14.078125 11.476562 C 14.03125 11.0625 13.917969 10.667969 13.738281 10.292969 C 13.558594 9.917969 13.324219 9.582031 13.027344 9.289062 C 12.734375 8.996094 12.398438 8.757812 12.023438 8.578125 C 11.648438 8.398438 11.253906 8.285156 10.839844 8.242188 C 9.847656 8.132812 8.566406 8.0625 6.910156 8.0625 C 8.566406 8.0625 9.847656 7.992188 10.839844 7.882812 C 11.253906 7.835938 11.648438 7.722656 12.023438 7.542969 C 12.398438 7.363281 12.734375 7.128906 13.027344 6.832031 C 13.324219 6.539062 13.558594 6.203125 13.738281 5.828125 C 13.917969 5.453125 14.03125 5.058594 14.078125 4.644531 C 14.1875 3.652344 14.257812 2.371094 14.257812 0.714844 C 14.257812 2.371094 14.328125 3.652344 14.433594 4.644531 Z M 14.433594 4.644531" fill="#0d0d0d"/></g><g clip-path="url(#3e0a3e85e5)"><path fill-rule="nonzero" fill-opacity="1" d="M 5.183594 11.863281 C 5.214844 12.125 5.285156 12.371094 5.398438 12.609375 C 5.511719 12.847656 5.660156 13.058594 5.847656 13.242188 C 6.03125 13.429688 6.242188 13.578125 6.480469 13.691406 C 6.71875 13.804688 6.964844 13.875 7.226562 13.90625 C 7.855469 13.972656 8.664062 14.019531 9.707031 14.019531 C 8.664062 14.019531 7.855469 14.0625 7.226562 14.132812 C 6.964844 14.160156 6.71875 14.230469 6.480469 14.34375 C 6.242188 14.457031 6.03125 14.609375 5.847656 14.792969 C 5.660156 14.980469 5.511719 15.191406 5.398438 15.425781 C 5.285156 15.664062 5.214844 15.914062 5.183594 16.175781 C 5.117188 16.800781 5.070312 17.609375 5.070312 18.65625 C 5.070312 17.609375 5.027344 16.800781 4.960938 16.175781 C 4.929688 15.914062 4.859375 15.664062 4.746094 15.425781 C 4.632812 15.191406 4.484375 14.980469 4.296875 14.792969 C 4.113281 14.609375 3.898438 14.457031 3.664062 14.34375 C 3.425781 14.230469 3.179688 14.160156 2.917969 14.132812 C 2.289062 14.0625 1.480469 14.019531 0.4375 14.019531 C 1.480469 14.019531 2.289062 13.972656 2.917969 13.90625 C 3.179688 13.875 3.425781 13.804688 3.664062 13.691406 C 3.898438 13.578125 4.113281 13.429688 4.296875 13.242188 C 4.484375 13.058594 4.632812 12.847656 4.746094 12.609375 C 4.859375 12.371094 4.929688 12.125 4.960938 11.863281 C 5.027344 11.234375 5.070312 10.425781 5.070312 9.382812 C 5.070312 10.425781 5.117188 11.234375 5.183594 11.863281 Z M 5.183594 11.863281" fill="#0d0d0d"/></g></g></g></svg>